<?xml version="1.0" encoding="utf-8"?>
<!-- Generator: Adobe Illustrator 24.0.0, SVG Export Plug-In . SVG Version: 6.00 Build 0)  -->
<svg version="1.1" id="Layer_1" xmlns="http://www.w3.org/2000/svg" xmlns:xlink="http://www.w3.org/1999/xlink" x="0px" y="0px"
	 viewBox="0 0 827.23 273.46" style="enable-background:new 0 0 827.23 273.46;" xml:space="preserve">
<style type="text/css">
	.st0{fill:#EE6023;}
	.st1{fill:#3A96CF;}
	.st2{fill:#F8A715;}
	.st3{fill:#FABE0F;}
	.st4{fill:#2B79BB;}
	.st5{fill:#90C93F;}
	.st6{fill:#B72625;}
	.st7{fill:#DE3627;}
	.st8{fill:#E9862B;}
	.st9{fill:#6C1436;}
	.st10{fill:#7D1C51;}
	.st11{fill:#912670;}
	.st12{fill:#55B848;}
	.st13{fill:#71C043;}
	.st14{fill:#BA5F63;}
	.st15{fill:#20304F;}
</style>
<g>
	<g>
		<path class="st0" d="M129.13,189.55c-0.62,0.6-1.25,1.21-1.87,1.81c-2.9,1.27-5.51,2.88-6.93,5.89c-1.88,1.62-3.76,3.24-5.64,4.86
			c-1.12-0.14-2.02,0.16-2.54,1.24c0,0-0.1,0.09-0.1,0.09c-0.38,0.15-0.76,0.29-1.14,0.44c-0.38,0.15-0.75,0.31-1.13,0.46
			c-2.82-0.8-5.21,1.06-7.92,1.27c-8.66,0.65-16.09-3.53-24.01-5.7c-1.28-0.35-3.53,0.06-4.13-2.63c3.67,0.73,6.32-0.18,6.4-4.22
			c0.15-7.55,1.01-15.05,2.25-22.45c0.87-5.17-0.75-7.91-5.72-8.95c-0.07-0.01-0.06-0.39-0.1-0.61c0.84-0.57,1.75-0.46,2.6-0.16
			c6.01,2.13,11.85,4.78,18.18,5.95c4.55,0.84,8.76,2.8,13.22,3.99c9.73,2.59,19.27,5.86,28.89,8.86c0.38,1.29-0.2,1.92-1.44,2.11
			c-2.2,0.61-3.71,2.04-4.75,4.02c-0.24,0.23-0.48,0.46-0.73,0.69C130.73,186.78,129.76,187.98,129.13,189.55z"/>
		<path class="st1" d="M153.95,74.41c3.72-4.81,9.25-5.99,14.71-7.25c7.26-1.67,13.81,1.31,20.42,3.4
			c4.79,1.51,9.72,2.72,14.05,5.65c4.37,2.95,7.35,6.92,9.9,11.33c1.11,1.92,1.28,3.83,0.22,6.01c-3.03,6.18-2,12.05,1.98,17.45
			c2.48,3.37,1.16,7.22,1.4,10.82c0.12,1.78,1.49,4.76-0.38,5.39c-1.64,0.55-2.02-2.76-3.3-4.15c-3.26-3.54-7.29-5.52-11.82-6.83
			c-5.96-1.72-11.86-3.61-17.78-5.48c-0.5-0.16-0.9-0.64-1.35-0.98c0.87-0.38,2.15,0.38,2.65-0.93c0.18-0.47-0.11-0.93-0.58-1.05
			c-2.34-0.59-1.93-2.46-1.93-4.11c-0.01-9.38-0.01-18.76,0.01-28.15c0-0.89-0.16-2.05,0.32-2.62c2.1-2.53,0.26-3.23-1.65-3.54
			c-7.02-1.16-14.03-1.57-20.76,1.46C157.9,71.8,156.26,73.68,153.95,74.41z M186.69,71.28c-0.08,0.19-0.16,0.38-0.25,0.57
			c0.19,0.08,0.42,0.27,0.56,0.21c0.13-0.05,0.18-0.35,0.26-0.54C187.07,71.44,186.88,71.36,186.69,71.28z"/>
		<path class="st2" d="M91.42,119.24c0.6,1.3,0.77,2.67,0.62,4.08c-1.88,1.75-0.45,2.56,0.96,3.37c2.2,4.3,2.29,9.15,3.51,13.71
			c1.69,6.3,2.7,12.78,4.09,19.17c0.45,2.08-0.38,2.53-2.13,1.96c-9.42-3.07-18.88-6.02-28.23-9.29
			c-9.16-3.21-16.95-14.16-17.07-23.46c5.57-0.98,10.27-4.13,15.32-6.36c6.29-2.78,12.55-5.62,19-8.01c2.1-0.78,2.27,0.22,2.26,1.86
			C89.75,117.51,89.19,119.2,91.42,119.24z"/>
		<path class="st3" d="M91.42,119.24c-2.23-0.04-1.67-1.73-1.67-2.97c0-1.64-0.16-2.64-2.26-1.86c-6.46,2.39-12.71,5.23-19,8.01
			c-5.05,2.23-9.74,5.38-15.32,6.36c-0.39-0.52-0.53-1.07-0.23-1.69c-0.05-2.28-0.39-4.48-1.74-6.4c-0.46-0.85-0.44-1.75-0.26-2.66
			c-0.62-4.39-1.02-8.77,0-13.16c0.63-4.53,2.93-8.26,6.14-11.29c1.73-1.63,4.5-0.71,6.76-1.72c4.55-2.02,8-4.9,10.16-9.41
			c0.52-1.09,1.33-2.21,2.31-2.86c3.73-2.47,7.59-4.74,11.34-7.05c0.7,0.71,0.73,1.33,0.38,1.78c-4.52,5.99-3.37,12.45-1.88,19.09
			C88.07,101.98,90.28,110.5,91.42,119.24z"/>
		<path class="st4" d="M153.95,74.41c2.31-0.72,3.95-2.6,6.1-3.57c6.73-3.03,13.74-2.62,20.76-1.46c1.91,0.32,3.75,1.02,1.65,3.54
			c-0.47,0.57-0.32,1.73-0.32,2.62c-0.02,9.38-0.02,18.76-0.01,28.15c0,1.65-0.41,3.52,1.93,4.11c0.47,0.12,0.77,0.58,0.58,1.05
			c-0.5,1.31-1.79,0.55-2.65,0.93c-0.41-0.04-0.81-0.08-1.22-0.11c-0.18-1.43-1.34-1.64-2.42-1.97c-3.49-1.09-6.93-2.5-10.5-3.21
			c-3.95-0.79-7.45-3.41-11.71-2.81c-0.41-0.04-0.83-0.08-1.24-0.12c-1.44-4.77-6.32-2.61-9.35-4.38c-2.23-1.3-5.6-1.32-8.34-2.39
			c-1.14-0.44-2.27-1.2-3.33,0.13c-1.42-0.43-1.71-1.14-0.57-2.22c0.99-0.03,1.65-0.5,1.94-1.47c0.41-0.45,0.81-0.89,1.22-1.33
			c1.28,0.1,1.97-0.51,2.13-1.77c0.74-1.39,2.03-2.17,3.29-2.99c0.96,0.1,1.44-0.32,1.38-1.31c0,0,0.04-0.04,0.04-0.04
			c4.48-1.85,7.48-5.39,10.34-9.08C153.68,74.53,153.77,74.43,153.95,74.41z"/>
		<path class="st5" d="M103.02,60.62c7.57-8.6,16.1-15.16,28.53-13.86c2.07,0.22,3.49,0.82,4.86,2.46
			c4.45,5.33,10.04,8.23,17.21,7.13c1.3-0.2,2.47,0.17,3.58,0.77c3.07,1.63,5.91,3.69,9.24,4.83c0.89,0.31,1.73,1,1.51,1.98
			c-0.24,1.08-1.31,0.59-2.01,0.49c-4.43-0.61-8.29,0.86-11.59,3.58c-4.96,4.08-9.71,8.43-14.56,12.65c-1,0.87-1.73,2.11-3.19,2.36
			c-0.03-0.93-0.4-2.37-1.33-1.61c-2.25,1.85-3.1-0.37-4.42-1.11c-1.16-0.65-2.21-1.51-3.3-2.29
			C119.38,72.19,109.94,68.17,103.02,60.62z"/>
		<path class="st6" d="M211.57,128.16c1.26,1.16,2.45,2.37,3.23,3.92c2.28,5.65,3.67,11.54,4.72,17.52
			c0.15,0.86,0.37,1.52,1.41,1.47c0.16,0.17,0.2,0.36,0.12,0.58c-0.13,0.54-1.3,1.22,0.2,1.55c0.1,0.69,0.2,1.38,0.3,2.07
			c-0.04,0.88-0.09,1.75-0.13,2.63c-0.63-0.16-2.02,0.85-1.81-0.45c0.62-3.8-2.91-6.56-2.24-10.35c0.25-1.43-0.92-2.49-2.4-1.72
			c-2.13,1.11-4.63,1.21-6.61,2.31c-5.95,3.3-12.64,4.5-18.82,7.15c-2.52,1.08-5.83,0.83-5.84,4.84c0,0.1-0.6,0.19-0.92,0.28
			c-0.25-4.71-1.87-9.15-2.98-13.66c-0.72-2.95-0.35-6.31-2.61-8.83c-0.07-0.44-0.14-0.87-0.2-1.31c1.49-0.8,0.68-1.85,0.35-2.89
			c-0.54-1.69-1.25-3.29-1.48-5.13c-0.5-3.97-1.41-7.9-2.2-11.83c-0.19-0.93-0.8-1.6-1.78-1.82c0-0.45,0-0.9,0-1.35
			c0.88,0.09,1.81,0.04,2.64,0.3c10.7,3.49,21.38,7.02,32.07,10.55c1.13,0.28,1.8,1.19,2.6,1.91c0.12,0.59,0.48,0.9,1.07,0.96
			c0.16,0.01,0.25,0.1,0.26,0.25C210.61,127.71,210.96,128.07,211.57,128.16z"/>
		<path class="st7" d="M182.78,159.95c0.32-0.09,0.92-0.19,0.92-0.28c0.01-4,3.32-3.76,5.84-4.84c6.17-2.64,12.87-3.85,18.82-7.15
			c1.99-1.1,4.49-1.2,6.61-2.31c1.48-0.77,2.65,0.3,2.4,1.72c-0.66,3.79,2.86,6.56,2.24,10.35c-0.21,1.31,1.18,0.29,1.81,0.45
			c0.81,2.17,1.05,4.29,0.36,6.61c-0.81,2.7-1.23,5.52-1.81,8.29c0.04,1.21-0.45,2.15-1.46,2.82c-2.04,2.46-4.22,4.28-7.79,4.63
			c-1.74,0.17-4.55,0.33-5.52,2.89c-0.64,0.45-1.29,0.9-1.93,1.36c-2.92,0.44-4.16,2.97-4.85,5.1c-1.38,4.26-5.22,4.93-8.28,6.79
			c-0.61,0.37-1.31,0.33-1.89-0.17c-0.62-0.53-0.65-1.2-0.14-1.78c1.1-1.26,0.86-2.77,0.79-4.2c-0.32-7.03-2.21-13.78-3.73-20.6
			c-0.14-0.64-0.48-1.28-1.24-1.48c-0.23-1.35-0.47-2.7-0.7-4.05C185.21,162.5,183.2,161.31,182.78,159.95z"/>
		<path class="st8" d="M139.45,179.7c-9.62-2.99-19.16-6.27-28.89-8.86c-4.47-1.19-8.68-3.15-13.22-3.99
			c-6.33-1.17-12.17-3.81-18.18-5.95c-0.85-0.3-1.76-0.41-2.6,0.16c0.03,0.22,0.03,0.59,0.1,0.61c4.96,1.04,6.59,3.78,5.72,8.95
			c-1.25,7.41-2.11,14.9-2.25,22.45c-0.08,4.04-2.73,4.95-6.4,4.22c0.59,2.69,2.85,2.28,4.13,2.63c7.92,2.17,15.36,6.35,24.01,5.7
			c2.71-0.2,5.1-2.06,7.92-1.27c-4.84,3.12-10.44,2.99-15.44,1.83c-7.86-1.83-15.75-4.02-23.04-7.7
			c-5.76-2.92-9.54-7.78-12.24-13.53c-0.77-1.63-0.66-3.14,0.18-4.82c2.74-5.5,2.38-11.06-0.95-16.07
			c-1.73-2.61-2.59-5.09-2.44-8.16c0.12-2.47-0.2-4.96-0.29-7.44c-0.03-0.66-0.16-1.47,0.68-1.71c0.31-0.09,0.95,0.22,1.1,0.51
			c4.62,9.32,14.2,10.02,22.48,12.77c12.95,4.29,26.01,8.28,39.05,12.29c6.35,1.95,12.56,4.4,19.06,5.9
			C138.64,178.36,139.9,178.23,139.45,179.7z M71.75,196.02c-0.24,0.17-0.41,0.29-0.57,0.4c0.21,0.23,0.39,0.57,0.65,0.67
			c0.34,0.13,0.7-0.13,0.59-0.51C72.35,196.35,71.98,196.2,71.75,196.02z"/>
		<path class="st9" d="M173.27,156.82c0.23-0.34,0.46-0.68,0.69-1.01c0.88,0.09,1.27,0.51,1.54,1.44
			c1.58,5.46,2.38,11.09,3.85,16.58c2.22,8.26,3.69,16.63,0.9,25.2c-0.59,1.8-2.6,2.99-2.09,5.17c0,0-0.06,0.07-0.06,0.07
			c-1.89,1.1-3.39,2.54-4.01,4.72c-0.54,0.87-1.21,1.61-2.18,2.01c-0.87-0.08-1.3,0.34-1.35,1.19c0,0-0.09,0.09-0.09,0.09
			c-1.37,0.18-2.15,1.06-2.65,2.26c-2.47,2.8-5.19,5.3-8.41,7.22c-0.35,0.02-0.7,0.04-1.05,0.07c-0.9-1.04-0.87-1,0.26-2.01
			c2.83-2.51,6.57-4.65,3.89-9.48c-0.34-0.61-0.07-1.56-0.07-2.35c0-6.33-0.12-12.66,0.03-18.99c0.13-5.4-0.55-10.81,0.48-16.2
			c0.47-2.44-1.52-2.32-2.8-1.51c-1.4,0.89-1.73,0.52-1.95-0.8c1.92-2.2,4.11-4.1,6.54-5.71c1.54-0.49,2.57-1.52,3.18-3
			c0.42-0.4,0.83-0.8,1.25-1.2c0.89,0.08,1.38-0.3,1.41-1.21c0,0,0.07-0.07,0.07-0.07C172.08,159.08,172.95,158.24,173.27,156.82z"
			/>
		<path class="st10" d="M158.19,170.48c0.22,1.32,0.55,1.69,1.95,0.8c1.27-0.8,3.26-0.93,2.8,1.51c-1.03,5.4-0.35,10.81-0.48,16.2
			c-0.15,6.33-0.04,12.66-0.03,18.99c0,0.79-0.26,1.74,0.07,2.35c2.68,4.84-1.06,6.97-3.89,9.48c-1.13,1-1.16,0.97-0.26,2.01
			c-0.02,0.24-0.03,0.47-0.05,0.71c-0.88,0.7-1.68,1.57-2.95,1.53c-0.85-0.25-1.54-0.15-1.83,0.83c-1.08,1.21-2.59,0.89-3.95,1.11
			c-0.45-0.1-0.9-0.2-1.35-0.3c-0.63-1.27-3.3,0.73-3.09-1.96c0.71-9.01,0.14-18.04,0.3-27.05c0.07-3.72-0.18-7.45,0.56-11.58
			c-3.63,3.04-3.92,3.06-4.67,0.61c0.22-0.21,0.43-0.41,0.65-0.62c2.16-0.36,3.26-1.91,4.18-3.68c0.57-0.56,1.14-1.13,1.71-1.69
			c1.31-0.55,2.88-0.81,3-2.68c0.33-0.65,0.77-1.18,1.5-1.39c0.74-0.02,1.18-0.38,1.31-1.11l0.01-0.18c0,0,0.17-0.02,0.17-0.02
			c0.61-0.26,1.22-0.52,1.83-0.78c0.63-0.06,1.46,0.22,1.65-0.67c0.05-0.25-0.51-0.62-0.79-0.94
			C156.9,171.25,157.39,170.69,158.19,170.48z"/>
		<path class="st11" d="M141.33,185.72c0.75,2.45,1.04,2.44,4.67-0.61c-0.74,4.13-0.5,7.86-0.56,11.58
			c-0.16,9.02,0.4,18.04-0.3,27.05c-0.21,2.69,2.45,0.7,3.09,1.97c-1.07,1.23-2.52,0.64-3.8,0.75c-2,0.18-3.93-1.09-5.98-0.36
			c-0.38-0.21-0.77-0.41-1.15-0.61c-0.05-0.58-0.36-0.9-0.94-0.97c-0.16-0.25-0.32-0.5-0.47-0.75c-1.6-3.83-5.12-5.12-8.53-6.74
			c-4.07-1.94-8.37-0.11-12.44-1.22c-0.93-0.52-1.86-1.03-2.79-1.55c-0.23-0.53-0.65-0.66-1.18-0.56c-0.97-0.49-1.93-0.99-2.89-1.48
			c-0.31-0.21-0.62-0.42-0.94-0.63c-0.35-0.23-0.7-0.45-1.05-0.68c-0.04-0.38-0.07-0.76-0.11-1.15c1.86-0.11,3.72-0.21,5.58-0.32
			c1.05,0.17,1.85-0.25,2.5-1.03c1-0.53,2.01-1.07,3.01-1.6c0.58,0.07,1.02-0.1,1.2-0.7c1.83-1.6,3.66-3.19,5.48-4.79
			c0.86,0.06,1.26-0.35,1.24-1.2c0,0,0.16-0.14,0.16-0.14c2.06-1.24,4.67-1.86,5.22-4.76c0,0,0.07-0.06,0.07-0.06
			c2.21-0.2,3.16-1.88,4.15-3.52C136.79,189.65,138.64,187.2,141.33,185.72z"/>
		<path class="st12" d="M114.18,102.99c-1.05,1.75-2.75,2.79-4.29,4.01c-0.65,0.02-1.05,0.33-1.13,0.99
			c-0.71,1.02-1.6,1.84-2.7,2.43c-2.35,0.53-3.55,2.38-4.78,4.19c-0.22,0.19-0.43,0.38-0.65,0.57c-0.77-0.02-1.28,0.28-1.37,1.1
			c-0.24,0.31-0.47,0.62-0.71,0.92c-1.14,0.03-1.93-0.23-2.01-1.63c-0.32-5.12-1.4-10.14-2.85-15.01c-0.84-2.82-0.7-5.79-1.68-8.44
			c-1.65-4.45-1.1-8.97-0.71-13.36c0.42-4.8,4.29-5.93,7.89-2.73c1.18,1.05,2.31,2.08,3.68,2.92c6.02,3.7,11.97,7.52,17.91,11.34
			c1.2,0.77,2.01,1.71,1.04,3.37c-0.72,1.22-1.02,2.69-1.51,4.05c-0.43,0.39-0.86,0.77-1.29,1.16
			C116.59,99.31,115.49,101.28,114.18,102.99z"/>
		<path class="st13" d="M120.29,97.72c0.49-1.36,0.79-2.83,1.51-4.05c0.97-1.66,0.16-2.6-1.04-3.37
			c-5.94-3.82-11.89-7.64-17.91-11.34c-1.37-0.84-2.5-1.88-3.68-2.92c-3.6-3.2-7.47-2.07-7.89,2.73c-0.38,4.39-0.93,8.91,0.71,13.36
			c0.98,2.65,0.85,5.62,1.68,8.44c1.45,4.87,2.53,9.89,2.85,15.01c0.09,1.4,0.87,1.67,2.01,1.63c-1.72,1.72-2.25,1.64-2.77-0.66
			c-1.46-6.47-2.84-12.95-4.24-19.44c-1.18-5.48-2.88-10.89-1.76-16.64c1.66-8.49,5.95-15.16,13.25-19.85
			c6.92,7.56,16.36,11.57,24.53,17.37c1.09,0.78,2.14,1.63,3.3,2.29c1.32,0.75,2.17,2.96,4.42,1.11c0.93-0.76,1.3,0.68,1.33,1.61
			C131.15,87.9,126.29,93.44,120.29,97.72z"/>
		<path class="st0" d="M29.73,174.24c-0.4-1.46-0.69-2.9,0.53-4.14c0.43-0.4,0.39-0.89,0.27-1.39c0.89-1.59,1.77-3.17,2.66-4.76
			c0.73,0.12,1.3-0.04,1.51-0.85c0.2-0.15,0.41-0.31,0.61-0.46c2.8-0.17,5.06-2.24,8.05-2.02c2.54,0.19,4.53,1.96,7.04,2.01
			c0,0,0,0,0,0c0.17,0.95,0.77,1.39,1.69,1.44c0.12,0.19,0.24,0.38,0.36,0.57c2.06,3.11,3.16,6.5,2.6,10.24
			c-0.29,1.92-0.9,3.87-3.45,2.02c-1.05-0.76-2.16-0.45-3.25-0.58c-3.86-0.48-7.67,1.39-11.43,0.5c-2.22-0.53-3.64-0.45-4.44,1.81
			C30.88,177.38,31.25,175.24,29.73,174.24z"/>
		<path class="st3" d="M67,84.02c-3.31,4-7.68,5.07-12.44,3.84c-5.6-1.44-9.26-5.25-10.1-11c-0.69-4.68,0.75-8.87,5.05-11.59
			c0.16,0.66,0.28,1.53,1.09,1.52c2.82-0.03,4.2,2.04,5.6,3.88c1.38,1.82,3.36,3.09,4.67,4.79c1.83,2.38,6.3,3.38,4.77,7.88
			C65.47,83.83,66.47,83.89,67,84.02z"/>
		<path class="st0" d="M48.26,224.77c-0.19,0.16-0.39,0.32-0.58,0.48c-1.86,0.07-3.22,1.36-4.84,2c-1.2,0.47-2.41,1.39-3.48-0.21
			c1.25-2.49,3.61-3.97,5.51-5.83c6.84-6.68,11.52-14.57,13.93-23.79c0.49-1.88,1.51-2.01,2.57-0.79c2.41,2.78,5.23,4.88,8.6,6.37
			c1.42,0.63,0.99,1.96,0.17,2.85c-6.22,6.66-12.28,13.51-20.36,18.08C49.04,223.82,48.47,223.98,48.26,224.77z"/>
		<path class="st11" d="M131.33,226.57c4.11,4.62,4.36,11.4,0.59,16.05c-4.3,5.31-11.07,6.85-16.4,3.73
			c-0.04-0.99,0.28-2.07-0.49-2.91c-0.88-0.96-0.55-1.65,0.15-2.62c2.9-4,5.21-8.38,7-12.95c0.92-2.34,2.03-3.64,4.56-3.48
			C128.79,224.03,129.81,225.84,131.33,226.57z"/>
		<path class="st4" d="M242.23,96.84c2.48,7.93-2.1,13.43-7.31,15.84c-6.01,2.79-12.54,0.64-16.51-5.12
			c-0.29-0.43-0.33-1.03-0.49-1.56c-0.79-2.87,0.76-3.95,3.25-4.64c5.17-1.43,10.29-3.05,15.44-4.55
			C238.48,96.27,240.37,94.79,242.23,96.84z"/>
		<path class="st6" d="M208.03,187.54c0.19-0.14,0.38-0.29,0.57-0.43c1.19,0.45,2.31-0.92,3.51-0.15c-1.39,1.61-1.23,2.8,0.32,4.51
			c2.41,2.64,4.48,5.59,6.92,8.25c1.94,2.11,3.11,5.29,6.73,2.46c0.06-0.05,0.22,0.01,0.33,0.02c-0.21,1.16-0.41,2.33-0.62,3.49
			c-0.89,1.35-1.96,2.52-3.31,3.43c-2.95,0.27-5.7,1.4-8.77,1.42c-2.47,0.02-4.31-1.73-6.68-1.49c-0.35-0.32-0.7-0.65-1.05-0.97
			c-0.12-0.75-0.58-1.16-1.31-1.28c0,0-0.04-0.05-0.04-0.05c-2.57-5.04-3.09-10.18-0.74-15.45c0.85-0.97,1.34-2.28,2.64-2.84
			C207.3,188.6,207.84,188.35,208.03,187.54z"/>
		<path class="st5" d="M139.79,45.25c-3.72-6.34-1.94-14.05,4.07-17.62c6.22-3.69,13.84-2.26,17.29,3.24
			c-2.7,1.14-4.41,3.61-6.84,5.13C149.45,39.05,145.78,43.96,139.79,45.25z"/>
		<path class="st2" d="M22.51,102.8c4.07-0.01,8.14-0.09,12.21,0.01c3,0.08,5.81-0.72,8.65-1.44c2.18-0.56,3.15,0.16,2.22,2.42
			c-1.08,2.59-1.18,5.27-0.99,8.01c0.11,1.52-0.2,3-2.1,2.62c-10.27-2.01-20.49-4.19-29.53-9.89c-0.8-2.96-4.95-2.23-5.88-5.09
			c1.2-1.06,2.11,1.76,3.2,0.03c0.95-0.03,1.88,0.05,2.65,0.71c0.92,1.94,2.24,2.56,4.15,1.28c1.22-0.15,2.31,0.24,3.35,0.84
			C20.79,103.81,21.48,104,22.51,102.8z"/>
		<path class="st2" d="M67,84.02c-0.53-0.13-1.53-0.19-1.36-0.69c1.53-4.5-2.94-5.5-4.77-7.88c-1.31-1.69-3.29-2.96-4.67-4.79
			c-1.4-1.84-2.78-3.91-5.6-3.88c-0.81,0.01-0.93-0.86-1.09-1.52c5.7-6.08,15.27-3.59,19.5,2.81C72.39,73.2,71.58,79.36,67,84.02z"
			/>
		<path class="st1" d="M242.23,96.84c-1.86-2.05-3.76-0.57-5.62-0.03c-5.15,1.51-10.27,3.13-15.44,4.55
			c-2.49,0.69-4.04,1.77-3.25,4.64c-2.81-3.79-2.43-8.96,0.93-12.54c0.13,0.93-0.4,1.95,0.48,2.97c1.22-1.58,1.66-3.61,3.39-4.78
			c1.22-0.81-0.61-1.09-0.6-1.77C229.11,84.16,239.89,87.88,242.23,96.84z"/>
		<path class="st4" d="M211.53,77.1c-2.82-2.38-5.35-5.14-8.91-6.52c-1.51-0.59-1.25-1.47-0.33-2.6c3.56-4.37,7.39-8.45,11.83-11.94
			c2.67,0.56,3.28-3.14,5.83-3.08c0.06,1.71-2.42,2.81-1.22,4.02c1.36,1.36,2.1-1.63,3.79-1.33c0.48,0.86-0.45,1.65-0.28,2.5
			c-0.69,1.23-1.36,2.46-2.53,3.32c-0.73,0.24-0.92,0.78-0.83,1.48c-1.13,2.23-2.26,4.47-3.39,6.7c-0.7,0.3-0.78,0.86-0.64,1.51
			c0.04,0.93-0.04,1.84-0.72,2.56c-0.69,0.28-0.81,0.82-0.64,1.47c-0.15,0.64-0.3,1.28-0.45,1.92
			C212.54,77.09,212.03,77.1,211.53,77.1z"/>
		<path class="st8" d="M29.73,174.24c1.52,1,1.16,3.13,2.74,4.36c0.8-2.25,2.22-2.33,4.44-1.81c3.77,0.89,7.58-0.98,11.43-0.5
			c1.09,0.14,2.21-0.18,3.25,0.58c2.55,1.86,3.16-0.1,3.45-2.02c0.56-3.74-0.54-7.13-2.6-10.24c3.35,2.19,4.93,7.98,3.38,12.43
			c-1.99,5.72-7.47,9.47-13.55,9.27c-5.92-0.19-11.15-4.49-12.63-10.45C29.51,175.38,29.69,174.79,29.73,174.24z"/>
		<path class="st13" d="M139.79,45.25c5.99-1.28,9.65-6.2,14.52-9.24c2.44-1.52,4.14-3.99,6.84-5.13c1.19,1.6,3.36,2.77,2.41,5.34
			c-0.58-0.07-1.17-1.95-1.62-0.37c-0.52,1.81-1.87,2.38-3.1,3.3c-4.44,3.32-8.86,6.67-13.52,10.18c2.9,1.76,5.45,2.52,8.36,1.37
			c1.13-0.44,2.3-1,3.6-0.6C151.41,54.16,144.48,52.24,139.79,45.25z"/>
		<path class="st5" d="M104.91,31.52c-2.24-3.29-1.72-7.17-2.13-10.8c-0.69-6.18,0.02-12.37,0.32-18.55
			c0.06-1.26,0.37-2.28,1.93-2.16c1.46,0.11,1.47,1.25,1.38,2.26c-0.72,8.43,1.83,16.19,4.81,23.87c-1.61-1.53-3.18-2.43-5.09-0.32
			c-1.24,1.38-0.62,2.92-0.76,4.41c0,0.45,0,0.89,0,1.34C105.22,31.58,105.07,31.56,104.91,31.52z"/>
		<path class="st14" d="M262.93,174.89c-4.91-0.98-9.56-2.88-14.63-3.36c-6.71-0.65-13.3-0.46-19.74,1.4
			c-2.74,0.79-3.28-0.22-2.51-2.31c1.13-3.06,1.4-6.11,1.19-9.3c-0.12-1.71,0.52-2.91,2.57-2.59c12.69,1.99,24.76,5.62,35.26,13.37
			c-1.1,0.14-1.87-0.59-2.77-1.02c-2.69-1.29-5.1-3.19-8.12-3.75c-0.97-0.56-1.9-1.24-2.93-1.66c-6.76-2.7-13.84-4.1-20.98-5.31
			c-1.71-0.29-1.92,0.2-1.97,1.6c-0.09,2.35,0.41,4.73-0.48,7.03c-0.27,0.7-1.08,1.45-0.5,2.16c0.67,0.83,1.64,0.33,2.51,0.1
			c7.62-2.06,15.26-2.67,22.94-0.34C256.22,172.07,260.14,172.02,262.93,174.89z"/>
		<path class="st12" d="M105.38,31.57c0-0.45,0-0.89,0-1.34c2.81,2.12,5.25,1.73,7.33-1.08c0.41,0.87,0.6,1.88,1.49,2.47
			c0,0.63,0.17,1.14,0.85,1.33c0.18,0.22,0.35,0.44,0.53,0.67c-0.02,0.69,0.21,1.21,0.96,1.37c1.81,1.9,3.61,3.8,5.42,5.7
			c-0.55,1.07-1.61,0.87-2.53,1.16c-2.42,0.75-4.97,1.39-6.59,3.63c-0.43,0.37-0.86,0.74-1.29,1.11c-0.94-0.06-1.21-0.72-1.59-1.48
			C107.83,40.79,106.8,36.11,105.38,31.57z"/>
		<path class="st12" d="M157.29,50.1c-1.3-0.41-2.47,0.15-3.6,0.6c-2.91,1.15-5.46,0.39-8.36-1.37c4.66-3.51,9.08-6.86,13.52-10.18
			c1.22-0.92,2.58-1.49,3.1-3.3c0.46-1.58,1.04,0.3,1.62,0.37c0.59,0.42,0.7,0.99,0.51,1.66c-0.43,0.56-0.43,1.12,0,1.69
			c-0.06,0.51-0.12,1.02-0.18,1.54c-1.33,1.78-2.04,3.85-2.82,5.9C160.26,48.57,158.9,49.5,157.29,50.1z"/>
		<path class="st9" d="M166.77,238.02c0.18,0.92,0.37,1.83,0.55,2.74c-0.09,0.92-0.19,1.84-0.28,2.76c-1.88,0.24-1.72-1.1-2.01-2.34
			c-0.62-2.66-3.35-2.15-4.71-1.87c-1.46,0.3,0.36,1.71,0.56,2.68c0.08,0.39-0.04,0.82-0.09,1.53c-2.28-1.19-2.6-3.96-4.82-4.74
			c-0.73-1.89-3.05-2.36-3.79-4.23c-0.07-0.84-0.58-1.11-1.35-1.03c0,0-0.1-0.12-0.1-0.12c0.17-0.92,0.4-1.95,1.49-1.99
			c3.06-0.12,5.56-1.57,8.04-3.14c1.42-0.9,2.44-0.36,2.92,1.05c0.76,2.22,1.35,4.49,2.01,6.74c-0.38,0.25-0.72,0.67-0.31,0.98
			c0.62,0.46,0.89-0.15,1.12-0.63c0.15,0.18,0.29,0.37,0.44,0.55C166.23,237.42,166.25,237.79,166.77,238.02z"/>
		<path class="st1" d="M222.24,58.13c-0.17-0.85,0.76-1.64,0.28-2.5c-1.69-0.29-2.44,2.69-3.79,1.33c-1.2-1.2,1.28-2.31,1.22-4.02
			c-2.55-0.05-3.16,3.64-5.83,3.08c6.05-6.24,13.61-10.2,21.32-13.85c1.53-0.73,3.87-3.07,5-0.9c1.26,2.44-2.15,2.83-3.63,3.91
			c-4.55,3.33-9.15,6.58-12.57,11.18C223.71,57.08,223.21,57.9,222.24,58.13z M224.29,53.36c3.75-1.8,5.72-5.89,9.61-7.52
			c0.16-0.07,0.29-0.7,0.17-0.87c-0.39-0.54-0.97-0.43-1.5-0.14c-1.95,1.07-3.96,2.06-5.82,3.27c-1.91,1.25-4.5,1.69-5.57,3.97
			c0.88,1.27,2.75-1.16,3.03,1.21c-0.51,0.11-1.1,0.13-1.02,0.89c0.01,0.08,0.14,0.21,0.22,0.22
			C224.17,54.46,224.18,53.87,224.29,53.36z"/>
		<path class="st9" d="M115.47,223.15c0.75-0.69,1.69-0.81,2.64-0.86c0.93,0.13,1.87,0.26,2.81,0.39c0.61,2.31-2.39,1.98-2.7,3.79
			c-0.45,2.68-2.21,4.86-3.33,7.28c-1.26,2.72-4.4,5.08-2.05,8.75c0.2,0.32-0.92,0.26-1.42,0.4c-0.8-0.38-1.43-0.91-1.66-1.81
			c-1.41-4.24-1.43-8.47,0.04-12.69c0.98-1.53,2.1-2.95,3.6-4.01C114.4,224.48,115.38,224.57,115.47,223.15z"/>
		<path class="st10" d="M111.43,242.89c0.5-0.14,1.62-0.08,1.42-0.4c-2.35-3.67,0.8-6.03,2.05-8.75c1.12-2.43,2.88-4.6,3.33-7.28
			c0.31-1.81,3.31-1.48,2.7-3.79c2.15-0.13,4.4-0.63,5.82,1.71c-2.53-0.15-3.64,1.15-4.56,3.48c-1.79,4.57-4.11,8.95-7,12.95
			c-0.7,0.97-1.03,1.65-0.15,2.62c0.77,0.84,0.45,1.92,0.49,2.91C113.76,245.66,112.22,244.72,111.43,242.89z"/>
		<path class="st0" d="M183.94,168.17c0.76,0.2,1.1,0.85,1.24,1.48c1.52,6.82,3.41,13.57,3.73,20.6c0.07,1.43,0.31,2.94-0.79,4.2
			c-0.51,0.58-0.48,1.24,0.14,1.78c0.58,0.5,1.28,0.54,1.89,0.17c3.06-1.86,6.9-2.53,8.28-6.79c0.69-2.13,1.93-4.66,4.85-5.1
			c-1.95,2.45-4.23,4.62-5.23,7.77c-0.54,1.69-2.38,2.28-3.84,3.15c-3.3,1.98-6.47,4.2-10.51,5.94c0.64-2.77,2.26-4.41,3.14-6.4
			c2.48-5.64,0.12-10.86-0.86-16.2C185.32,175.22,184.15,171.79,183.94,168.17z"/>
		<path class="st11" d="M178.17,204.2c-0.51-2.18,1.5-3.36,2.09-5.17c2.79-8.57,1.32-16.94-0.9-25.2
			c-1.48-5.49-2.28-11.12-3.85-16.58c-0.27-0.93-0.66-1.35-1.54-1.44c2.15-1.1,2.51-1.02,2.9,0.84c2.06,9.82,4.46,19.58,6.01,29.48
			C183.88,192.57,182.45,198.88,178.17,204.2z"/>
		<path class="st14" d="M168.77,248.17c1.89,6,1.54,12.13,1.07,18.26c-0.14,1.79-0.42,3.57-0.68,5.35
			c-0.14,0.93-0.41,1.87-1.65,1.65c-0.94-0.17-1.87-0.7-1.72-1.76c1.11-7.96-1.65-15.26-3.8-22.66c1.49,1.47,2.23,3.3,2.53,5.33
			c2.71,5.47,2.31,11.55,2.96,17.43c0.34-0.03,0.67-0.05,1.01-0.08c0-6.46,0-12.92,0-19.38
			C168.58,250.93,168.67,249.55,168.77,248.17z"/>
		<path class="st10" d="M168.77,248.17c-0.1,1.38-0.19,2.76-0.29,4.13c-1.8-0.07-1.34-1.77-1.9-2.71c-0.34-0.58-0.51-1.4-1.34-1.06
			c-1.09,0.45-0.49,1.11-0.11,1.85c0.73,1.4,1.83,2.99-0.61,3.95c-0.31-2.03-1.04-3.86-2.53-5.33c-2-3.41-4-6.82-6.01-10.23
			c2.21,0.78,2.54,3.55,4.82,4.74c0.05-0.71,0.17-1.14,0.09-1.53c-0.2-0.97-2.02-2.37-0.56-2.68c1.36-0.28,4.09-0.79,4.71,1.87
			c0.29,1.24,0.13,2.58,2.01,2.34c1.13,0.55,0.35,2.14,1.48,2.69C168.6,246.87,168.68,247.52,168.77,248.17z M162.49,245.44
			c-0.17-0.25-0.32-0.75-0.61-0.86c-0.58-0.22-0.74,0.36-0.68,0.75c0.06,0.37,0.29,0.89,0.58,1.01
			C162.46,246.63,162.29,245.94,162.49,245.44z"/>
		<path class="st14" d="M206.58,123.98c-10.69-3.52-21.37-7.06-32.07-10.55c-0.82-0.27-1.76-0.21-2.64-0.3
			c-0.65-1.54,0.19-1.98,1.4-1.52c10.24,3.9,21.04,6.13,31.13,10.49C205.35,122.51,206.27,122.86,206.58,123.98z"/>
		<path class="st7" d="M254.17,167.34c3.03,0.56,5.43,2.46,8.12,3.75c0.9,0.43,1.67,1.16,2.77,1.02c2,1.37,4,2.72,5.98,4.11
			c0.65,0.46,1.29,1.11,0.75,1.92c-0.5,0.76-1.35,0.54-2.1,0.24c-0.18-0.55-0.61-0.71-1.13-0.71c0,0-0.18-0.16-0.18-0.16
			c-0.78-1.21-1.99-1.64-3.33-1.83c-0.71-0.26-1.41-0.52-2.12-0.78c-2.79-2.87-6.72-2.82-10.18-3.97
			C253.43,169.81,254.47,168.84,254.17,167.34z"/>
		<path class="st14" d="M225.78,205.69c0.21-1.16,0.41-2.33,0.62-3.49c2.1-4.42-0.44-10.81-4.47-13.68
			c-3.13-2.23-6.54-1.14-9.82-1.55c-1.2-0.77-2.32,0.6-3.51,0.15c4.76-3.4,11.08-2.59,15.53,1.85
			C228.73,193.54,229.87,201.01,225.78,205.69z"/>
		<path class="st3" d="M10.29,99.45c-1.1,1.73-2-1.09-3.2-0.03c0.93,2.87,5.08,2.13,5.88,5.09c-4.76-1.5-8.52-4.59-12.26-7.7
			c-0.49-0.41-1.02-1.07-0.48-1.75c0.66-0.82,1.74-0.76,2.47-0.34C5.28,96.22,7.77,97.87,10.29,99.45z"/>
		<path class="st8" d="M39.35,227.04c1.07,1.6,2.28,0.68,3.48,0.21c1.62-0.64,2.98-1.93,4.84-2c-3.76,3.73-8.89,4.99-13.37,7.41
			c-0.82,0.44-1.94,0.25-2.39-0.63c-0.58-1.12,0.51-1.62,1.27-1.97C35.26,229.09,36.76,226.93,39.35,227.04z"/>
		<path class="st14" d="M182.78,159.95c0.42,1.36,2.43,2.55,0.46,4.17c-1.96-2.06-1.42-4.86-2.07-7.29
			c-1.51-5.64-2.77-11.36-4.06-17.06c-0.16-0.73,0.05-1.54,0.09-2.31c2.26,2.51,1.88,5.88,2.61,8.83
			C180.91,150.8,182.53,155.24,182.78,159.95z"/>
		<path class="st11" d="M165.19,236.06c-0.66-2.25-1.24-4.53-2.01-6.74c-0.48-1.4-1.5-1.94-2.92-1.05
			c-2.47,1.56-4.97,3.01-8.04,3.14c-1.09,0.04-1.32,1.08-1.49,1.99c-1.88-1.39-2.07-2.54,0.61-2.8c3.38-0.33,6.34-1.71,8.9-3.73
			c1.76-1.39,2.95-0.76,3.37,0.75c0.79,2.79,2.54,5.33,2.35,8.38C165.71,236.03,165.45,236.04,165.19,236.06z"/>
		<path class="st1" d="M133.9,94.91c1.06-1.33,2.2-0.57,3.33-0.13c2.74,1.07,6.11,1.08,8.34,2.39c3.04,1.77,7.92-0.39,9.35,4.38
			C147.82,99.63,140.81,97.41,133.9,94.91z"/>
		<path class="st1" d="M156.16,101.67c4.26-0.6,7.76,2.02,11.71,2.81c3.57,0.71,7,2.12,10.5,3.21c1.07,0.34,2.24,0.55,2.42,1.97
			C172.44,107.41,164.15,105,156.16,101.67z"/>
		<path class="st13" d="M112.71,29.14c-2.08,2.82-4.52,3.21-7.33,1.08c0.14-1.48-0.49-3.03,0.76-4.41c1.91-2.11,3.49-1.21,5.09,0.32
			C111.72,27.14,112.21,28.14,112.71,29.14z"/>
		<path class="st14" d="M171.87,114.48c0.99,0.23,1.6,0.89,1.78,1.82c0.79,3.93,1.7,7.86,2.2,11.83c0.23,1.84,0.94,3.44,1.48,5.13
			c0.33,1.03,1.14,2.09-0.35,2.89c-2.06-3.91-1.96-8.39-3.26-12.52C172.79,120.68,172.47,117.54,171.87,114.48z"/>
		<path class="st14" d="M114.91,215.82c4.07,1.11,8.37-0.72,12.44,1.22c3.41,1.62,6.93,2.91,8.53,6.74
			c-3.27-2.43-6.12-5.54-10.5-6.15c-2.13-0.29-4.23-0.43-6.36-0.23C117.4,217.55,115.87,217.4,114.91,215.82z"/>
		<path class="st14" d="M220.92,151.08c-1.04,0.05-1.26-0.61-1.41-1.47c-1.05-5.98-2.43-11.87-4.72-17.52
			c3.34,3.08,3.67,7.48,4.89,11.45C220.42,145.95,220.53,148.56,220.92,151.08z"/>
		<path class="st0" d="M219.96,172.8c0.59-2.77,1.01-5.59,1.81-8.29c0.69-2.32,0.45-4.44-0.36-6.61c0.04-0.88,0.08-1.75,0.13-2.63
			C224.15,159.81,223.33,168.93,219.96,172.8z"/>
		<path class="st13" d="M105.38,31.57c1.43,4.54,2.45,9.22,4.58,13.53c0.38,0.76,0.65,1.42,1.59,1.48
			c-1.04,1.67-2.01,0.78-2.39-0.33c-1.68-4.83-4.17-9.43-4.23-14.73C105.07,31.56,105.22,31.58,105.38,31.57z"/>
		<path class="st14" d="M207.03,209.06c2.36-0.25,4.21,1.51,6.68,1.49c3.07-0.03,5.82-1.15,8.77-1.42
			C217.76,212.9,211.62,212.87,207.03,209.06z"/>
		<path class="st0" d="M205.19,183.15c0.97-2.57,3.79-2.72,5.52-2.89c3.57-0.35,5.74-2.18,7.79-4.63c-0.84,3.1-2.5,4.96-6.02,5.3
			C210,181.16,207.62,182.37,205.19,183.15z"/>
		<path class="st14" d="M203.88,191.3c-2.35,5.28-1.83,10.41,0.74,15.45C200.22,203.05,199.87,195.88,203.88,191.3z"/>
		<path class="st8" d="M50.4,162.62c-2.51-0.05-4.5-1.82-7.04-2.01c-2.99-0.22-5.25,1.85-8.05,2.02
			C39.67,158.75,45.88,158.74,50.4,162.62z"/>
		<path class="st14" d="M126.74,224.39c-1.42-2.34-3.67-1.85-5.82-1.71c-0.94-0.13-1.87-0.26-2.81-0.39
			c4.33-2.18,11.24,0.06,13.22,4.28C129.81,225.84,128.79,224.03,126.74,224.39z"/>
		<path class="st1" d="M153.68,74.71c-2.87,3.69-5.86,7.23-10.34,9.08C146.6,80.55,149.68,77.11,153.68,74.71z"/>
		<path class="st2" d="M50.93,104.86c-1.03,4.39-0.62,8.77,0,13.16C48.6,113.64,48.74,109.25,50.93,104.86z"/>
		<path class="st13" d="M112.83,45.47c1.62-2.24,4.17-2.88,6.59-3.63c0.92-0.28,1.99-0.09,2.53-1.16c0.91,0.46,1.79,1.59,0.38,1.74
			C118.89,42.79,116.1,44.81,112.83,45.47z"/>
		<path class="st14" d="M109.81,228.39c-1.47,4.23-1.46,8.46-0.04,12.69C106.84,236.7,106.85,232.18,109.81,228.39z"/>
		<path class="st14" d="M138.44,226.11c2.05-0.73,3.97,0.54,5.98,0.36c1.29-0.12,2.73,0.48,3.8-0.75c0.45,0.1,0.9,0.2,1.35,0.29
			C145.88,228.43,142.16,227.71,138.44,226.11z"/>
		<path class="st8" d="M120.33,197.26c1.41-3.02,4.03-4.62,6.93-5.89C125.29,193.73,123.18,195.93,120.33,197.26z"/>
		<path class="st4" d="M222.12,89.89c-0.01,0.68,1.82,0.96,0.6,1.77c-1.74,1.17-2.17,3.19-3.39,4.78c-0.88-1.02-0.35-2.04-0.48-2.97
			C219.67,92.02,220.77,90.84,222.12,89.89z"/>
		<path class="st14" d="M130.35,195.24c-0.55,2.89-3.16,3.52-5.22,4.76C126.31,197.79,128.49,196.69,130.35,195.24z"/>
		<path class="st13" d="M114.18,102.99c1.31-1.72,2.42-3.68,4.82-4.11C117.58,100.48,116.52,102.48,114.18,102.99z"/>
		<path class="st13" d="M101.27,114.61c1.23-1.81,2.43-3.66,4.78-4.19C104.83,112.24,103.45,113.89,101.27,114.61z"/>
		<path class="st13" d="M161.08,46.99c0.78-2.04,1.49-4.12,2.82-5.9C164.04,43.58,163.04,45.52,161.08,46.99z"/>
		<path class="st11" d="M174.09,208.98c0.62-2.18,2.12-3.62,4.01-4.72C177.07,206.1,176.12,208,174.09,208.98z"/>
		<path class="st2" d="M51.19,120.68c1.35,1.92,1.69,4.13,1.74,6.4C51.94,125.07,51.15,122.99,51.19,120.68z"/>
		<path class="st8" d="M133.26,185.83c1.04-1.98,2.55-3.41,4.75-4.02C136.79,183.58,135.29,185.02,133.26,185.83z"/>
		<path class="st14" d="M168.52,246.21c-1.13-0.55-0.35-2.14-1.48-2.69c0.09-0.92,0.19-1.84,0.28-2.76
			C168.51,242.41,169.35,244.13,168.52,246.21z"/>
		<path class="st11" d="M146.16,181.42c-0.92,1.77-2.03,3.32-4.18,3.68C143.08,183.54,144.15,181.95,146.16,181.42z"/>
		<path class="st14" d="M134.57,191.65c-0.98,1.65-1.94,3.33-4.15,3.52C131.71,193.89,132.47,191.98,134.57,191.65z"/>
		<path class="st11" d="M167.91,161.77c-0.6,1.48-1.63,2.52-3.18,3C165.28,163.24,166.29,162.19,167.91,161.77z"/>
		<path class="st8" d="M129.13,189.55c0.63-1.57,1.6-2.77,3.4-3.03C131.76,187.94,130.86,189.21,129.13,189.55z"/>
		<path class="st11" d="M150.87,177.05c-0.12,1.88-1.69,2.14-3,2.68C148.13,178.01,149.8,177.86,150.87,177.05z"/>
		<path class="st14" d="M105.96,209.77c0.04,0.38,0.07,0.77,0.11,1.15c-0.99,0.43-1.68-0.05-1.55-0.97
			C104.64,209.06,105.38,209.1,105.96,209.77z"/>
		<path class="st3" d="M17.09,101.45c-1.91,1.27-3.23,0.65-4.15-1.28C14.32,100.59,15.7,101.02,17.09,101.45z"/>
		<path class="st3" d="M92.99,126.69c-1.41-0.81-2.83-1.62-0.96-3.37C92.71,124.34,93.18,125.42,92.99,126.69z"/>
		<path class="st11" d="M167.81,214.54c0.5-1.2,1.28-2.08,2.65-2.26C169.94,213.46,169.18,214.35,167.81,214.54z"/>
		<path class="st11" d="M173.27,156.82c-0.33,1.42-1.19,2.26-2.64,2.47C171.2,158.14,172.02,157.24,173.27,156.82z"/>
		<path class="st14" d="M265.05,175.67c1.34,0.19,2.55,0.62,3.33,1.83C267.12,177.17,265.67,177.17,265.05,175.67z"/>
		<path class="st14" d="M114.05,208.42c-0.66,0.78-1.46,1.21-2.5,1.03C112.16,208.58,112.82,207.82,114.05,208.42z"/>
		<path class="st1" d="M135.27,91.22c-0.28,0.97-0.95,1.44-1.94,1.47C133.61,91.72,134.14,91.07,135.27,91.22z"/>
		<path class="st1" d="M138.62,88.12c-0.16,1.25-0.86,1.86-2.13,1.77C136.95,88.99,137.55,88.27,138.62,88.12z"/>
		<path class="st8" d="M112.14,203.36c0.52-1.09,1.42-1.39,2.54-1.24C114.25,203.38,113.11,203.18,112.14,203.36z"/>
		<path class="st13" d="M164.08,39.56c-0.43-0.56-0.44-1.13,0-1.69C164.93,38.44,164.93,39,164.08,39.56z"/>
		<path class="st3" d="M22.51,102.8c-1.04,1.2-1.73,1.01-2.08-0.52C21.21,102.12,21.93,102.17,22.51,102.8z"/>
		<path class="st1" d="M211.53,77.1c0.51,0,1.02-0.01,1.52-0.01c0.2,0.51-0.03,0.85-0.5,0.91C211.93,78.08,211.58,77.72,211.53,77.1
			z"/>
		<path class="st14" d="M115.47,223.15c-0.09,1.42-1.07,1.33-2.06,1.23C113.83,223.51,114.53,223.13,115.47,223.15z"/>
		<path class="st9" d="M156.56,171.95c0.28,0.32,0.84,0.69,0.79,0.94c-0.19,0.89-1.02,0.61-1.65,0.67
			c-0.03-0.23-0.05-0.45-0.08-0.68C155.93,172.57,156.24,172.26,156.56,171.95z"/>
		<path class="st8" d="M52.09,164.07c-0.92-0.06-1.52-0.5-1.69-1.44C51.3,162.7,51.71,163.36,52.09,164.07z"/>
		<path class="st11" d="M155.62,172.88c0.03,0.23,0.05,0.45,0.08,0.68c-0.61,0.26-1.22,0.52-1.83,0.78
			C154.02,173.34,154.77,173.06,155.62,172.88z"/>
		<path class="st14" d="M124.97,200.13c0.03,0.85-0.38,1.26-1.24,1.2C123.88,200.66,124.27,200.23,124.97,200.13z"/>
		<path class="st13" d="M116.53,34.98c-0.75-0.16-0.98-0.68-0.96-1.37C116.33,33.76,116.59,34.26,116.53,34.98z"/>
		<path class="st13" d="M115.04,32.95c-0.68-0.19-0.85-0.71-0.85-1.33C115,31.72,115.22,32.21,115.04,32.95z"/>
		<path class="st14" d="M118.26,206.12c-0.18,0.6-0.62,0.77-1.2,0.7C117.16,206.08,117.52,205.78,118.26,206.12z"/>
		<path class="st14" d="M204.66,206.8c0.74,0.12,1.19,0.53,1.31,1.28C205.12,208.08,204.72,207.62,204.66,206.8z"/>
		<path class="st11" d="M170.56,212.19c0.05-0.85,0.49-1.27,1.35-1.19C171.7,211.67,171.26,212.08,170.56,212.19z"/>
		<path class="st14" d="M107.11,211.6c0.31,0.21,0.62,0.42,0.94,0.63C107.25,212.74,107.08,212.32,107.11,211.6z"/>
		<path class="st14" d="M268.56,177.66c0.53-0.01,0.95,0.16,1.13,0.71C268.89,178.81,268.62,178.39,268.56,177.66z"/>
		<path class="st14" d="M110.94,213.71c0.53-0.1,0.95,0.03,1.18,0.56C111.45,214.68,111.05,214.51,110.94,213.71z"/>
		<path class="st11" d="M170.56,159.36c-0.03,0.92-0.52,1.29-1.41,1.21C169.39,159.9,169.89,159.52,170.56,159.36z"/>
		<path class="st13" d="M99.25,116.28c0.09-0.83,0.6-1.12,1.37-1.1C100.5,115.96,99.98,116.25,99.25,116.28z"/>
		<path class="st11" d="M158.3,222.54c0.02-0.24,0.03-0.47,0.05-0.71c0.35-0.02,0.7-0.04,1.05-0.07
			C159.41,222.54,158.97,222.7,158.3,222.54z"/>
		<path class="st8" d="M30.53,168.71c0.12,0.51,0.15,1-0.27,1.39C29.42,169.46,30.18,169.13,30.53,168.71z"/>
		<path class="st8" d="M34.7,163.1c-0.21,0.81-0.78,0.97-1.51,0.85C33.55,163.41,33.95,162.94,34.7,163.1z"/>
		<path class="st8" d="M48.26,224.77c0.21-0.79,0.78-0.96,1.5-0.85C49.46,224.57,48.98,224.89,48.26,224.77z"/>
		<path class="st11" d="M153.52,224.89c0.29-0.98,0.98-1.08,1.83-0.83C154.9,224.68,154.33,225.07,153.52,224.89z"/>
		<path class="st14" d="M211.57,128.16c-0.61-0.1-0.95-0.46-1.05-1.06C211.29,127.03,211.68,127.35,211.57,128.16z"/>
		<path class="st14" d="M136.35,224.53c0.58,0.07,0.89,0.39,0.94,0.97C136.55,225.59,136.22,225.29,136.35,224.53z"/>
		<path class="st14" d="M208.03,187.54c-0.19,0.82-0.73,1.06-1.5,0.92C206.77,187.74,207.24,187.39,208.03,187.54z"/>
		<path class="st1" d="M143.29,83.82c0.06,0.98-0.42,1.4-1.38,1.31C142.14,84.45,142.55,83.96,143.29,83.82z"/>
		<path class="st1" d="M213.5,75.17c-0.17-0.66-0.05-1.19,0.64-1.47C214.52,74.45,214.01,74.81,213.5,75.17z"/>
		<path class="st11" d="M153.68,174.54c-0.13,0.73-0.58,1.09-1.31,1.11C152.48,174.9,153,174.63,153.68,174.54z"/>
		<path class="st11" d="M150.83,233.52c0.77-0.08,1.28,0.19,1.35,1.03C151.57,234.41,150.99,234.24,150.83,233.52z"/>
		<path class="st10" d="M165.19,236.06c0.26-0.02,0.53-0.04,0.79-0.06c0,0,0.14,0.19,0.14,0.19s-0.12,0.21-0.12,0.21
			c-0.23,0.48-0.5,1.09-1.12,0.63C164.47,236.74,164.81,236.31,165.19,236.06z"/>
		<path class="st14" d="M210.25,126.85c-0.59-0.07-0.95-0.38-1.07-0.96C210,125.7,210.31,126.07,210.25,126.85z"/>
		<path class="st14" d="M166.77,238.02c-0.52-0.22-0.54-0.6-0.33-1.05C167.36,237.06,167.68,237.34,166.77,238.02z"/>
		<path class="st13" d="M108.75,107.99c0.09-0.66,0.49-0.97,1.13-0.99C109.85,107.73,109.46,108.03,108.75,107.99z"/>
		<path class="st1" d="M214.86,71.13c-0.14-0.65-0.06-1.21,0.64-1.51C215.82,70.35,215.39,70.76,214.86,71.13z"/>
		<path class="st1" d="M218.89,62.92c-0.09-0.7,0.09-1.24,0.83-1.48C219.94,62.22,219.66,62.71,218.89,62.92z"/>
		<path class="st8" d="M110.91,203.89c0.38-0.15,0.76-0.29,1.14-0.44C111.81,203.96,111.66,204.7,110.91,203.89z"/>
		<path class="st0" d="M221.24,153.2c-1.5-0.33-0.33-1.01-0.2-1.55C221.46,152.13,221.53,152.64,221.24,153.2z"/>
		<path class="st4" d="M186.69,71.28c0.19,0.08,0.38,0.16,0.57,0.24c-0.08,0.19-0.12,0.49-0.26,0.54c-0.14,0.05-0.37-0.13-0.56-0.21
			C186.53,71.65,186.61,71.46,186.69,71.28z"/>
		<path class="st0" d="M71.75,196.02c0.22,0.18,0.6,0.32,0.66,0.56c0.11,0.39-0.25,0.64-0.59,0.51c-0.26-0.1-0.44-0.44-0.65-0.67
			C71.34,196.31,71.51,196.2,71.75,196.02z"/>
		<path class="st7" d="M212.11,186.96c3.28,0.41,6.69-0.68,9.82,1.55c4.03,2.87,6.57,9.26,4.47,13.68
			c-0.11-0.01-0.27-0.07-0.33-0.02c-3.61,2.84-4.78-0.34-6.73-2.46c-2.44-2.66-4.51-5.61-6.92-8.25
			C210.88,189.77,210.72,188.58,212.11,186.96z"/>
		<path class="st6" d="M254.17,167.34c0.3,1.5-0.73,2.47-1.41,3.59c-7.68-2.33-15.32-1.73-22.94,0.34c-0.87,0.24-1.85,0.73-2.51-0.1
			c-0.58-0.72,0.23-1.46,0.5-2.16c0.89-2.3,0.39-4.69,0.48-7.03c0.05-1.39,0.27-1.89,1.97-1.6c7.14,1.21,14.22,2.61,20.98,5.31
			C252.27,166.09,253.19,166.78,254.17,167.34z"/>
		<path class="st4" d="M224.21,53.28c-0.28-2.37-2.14,0.07-3.03-1.21c1.07-2.29,3.65-2.72,5.57-3.97c1.86-1.22,3.87-2.2,5.82-3.27
			c0.52-0.29,1.1-0.4,1.5,0.14c0.13,0.17-0.01,0.8-0.17,0.87c-3.9,1.63-5.87,5.72-9.61,7.52L224.21,53.28z"/>
		<path class="st4" d="M224.29,53.36c-0.11,0.51-0.12,1.1-0.88,1.03c-0.08-0.01-0.21-0.14-0.22-0.22c-0.08-0.76,0.51-0.78,1.02-0.89
			C224.21,53.28,224.29,53.36,224.29,53.36z"/>
		<path class="st11" d="M164.52,254.34c2.45-0.96,1.34-2.55,0.61-3.95c-0.38-0.73-0.98-1.4,0.11-1.85c0.82-0.34,0.99,0.48,1.34,1.06
			c0.56,0.94,0.1,2.64,1.9,2.71c0,6.46,0,12.92,0,19.38c-0.34,0.03-0.67,0.05-1.01,0.08C166.83,265.89,167.22,259.81,164.52,254.34z
			"/>
		<path class="st9" d="M162.49,245.44c-0.2,0.5-0.03,1.19-0.71,0.91c-0.29-0.12-0.53-0.64-0.58-1.01c-0.06-0.4,0.1-0.97,0.68-0.75
			C162.17,244.7,162.32,245.19,162.49,245.44z"/>
	</g>
	<g>
		<path class="st15" d="M325.94,170.64h40.78v23.43h-71.36V67.62h30.58V170.64z"/>
		<path class="st15" d="M454.08,99.19c7.81,4.11,13.95,10.05,18.42,17.79c4.47,7.75,6.71,16.81,6.71,27.18s-2.24,19.44-6.71,27.18
			c-4.47,7.75-10.61,13.68-18.42,17.79c-7.81,4.11-16.66,6.17-26.56,6.17c-9.9,0-18.78-2.06-26.65-6.17s-14.04-10.04-18.51-17.79
			c-4.47-7.75-6.71-16.81-6.71-27.18s2.24-19.43,6.71-27.18c4.47-7.75,10.64-13.68,18.51-17.79s16.75-6.17,26.65-6.17
			C437.42,93.02,446.27,95.07,454.08,99.19z M412.77,125.84c-4,4.23-5.99,10.35-5.99,18.33c0,7.99,2,14.07,5.99,18.24
			c3.99,4.17,8.91,6.26,14.75,6.26c5.84,0,10.73-2.08,14.67-6.26c3.93-4.17,5.9-10.25,5.9-18.24c0-7.99-1.97-14.1-5.9-18.33
			c-3.93-4.23-8.82-6.35-14.67-6.35C421.68,119.49,416.76,121.6,412.77,125.84z"/>
		<path class="st15" d="M555.57,194.06l-29.87-42.39v42.39h-30.58V61.72h30.58v72.61l29.87-40.06h35.95l-40.24,49.9l41.13,49.9
			H555.57z"/>
		<path class="st15" d="M695.34,74.6c9.36,5.49,16.72,13.15,22.09,22.98c5.37,9.84,8.05,20.96,8.05,33.35
			c0,12.4-2.68,23.52-8.05,33.35c-5.37,9.84-12.73,17.5-22.09,22.98c-9.36,5.49-19.88,8.23-31.57,8.23
			c-11.69,0-22.27-2.74-31.75-8.23c-9.48-5.48-16.9-13.15-22.27-22.98c-5.37-9.84-8.05-20.95-8.05-33.35
			c0-12.4,2.68-23.52,8.05-33.35c5.37-9.84,12.79-17.5,22.27-22.98c9.48-5.48,20.06-8.23,31.75-8.23
			C675.46,66.37,685.98,69.11,695.34,74.6z M640.43,87.56c-6.86,4-12.22,9.72-16.1,17.17c-3.88,7.45-5.81,16.19-5.81,26.2
			c0,9.9,1.94,18.6,5.81,26.11c3.87,7.51,9.24,13.26,16.1,17.26c6.85,4,14.63,5.99,23.34,5.99c8.58,0,16.3-2.03,23.16-6.08
			c6.85-4.05,12.22-9.81,16.1-17.26c3.87-7.45,5.81-16.12,5.81-26.02c0-10.02-1.94-18.75-5.81-26.2
			c-3.88-7.45-9.24-13.17-16.1-17.17c-6.86-3.99-14.58-5.99-23.16-5.99C655.07,81.57,647.29,83.57,640.43,87.56z"/>
		<path class="st15" d="M822.94,177.97c-2.86,5.13-7.22,9.3-13.06,12.52c-5.84,3.22-13.06,4.83-21.64,4.83
			c-8.35,0-15.77-1.52-22.27-4.56c-6.5-3.04-11.69-7.21-15.56-12.52c-3.88-5.3-6.11-11.36-6.71-18.15h17.35
			c0.36,3.58,1.58,7.06,3.67,10.46c2.08,3.4,5.07,6.2,8.94,8.41c3.87,2.21,8.55,3.31,14.04,3.31c7.15,0,12.64-1.91,16.45-5.72
			c3.81-3.81,5.72-8.7,5.72-14.67c0-5.13-1.34-9.3-4.02-12.52c-2.68-3.22-5.99-5.75-9.93-7.6c-3.93-1.85-9.3-3.84-16.1-5.99
			c-7.99-2.62-14.4-5.1-19.23-7.42c-4.83-2.33-8.94-5.81-12.34-10.46c-3.4-4.65-5.1-10.79-5.1-18.42c0-6.56,1.58-12.34,4.74-17.35
			c3.16-5.01,7.69-8.88,13.59-11.63c5.9-2.74,12.85-4.11,20.84-4.11c12.4,0,22.24,3.01,29.51,9.03c7.27,6.02,11.5,13.68,12.7,22.98
			h-17.53c-0.96-5.01-3.52-9.42-7.69-13.24c-4.18-3.81-9.84-5.72-16.99-5.72c-6.56,0-11.8,1.7-15.74,5.1c-3.93,3.4-5.9,8.2-5.9,14.4
			c0,4.89,1.28,8.85,3.85,11.89c2.56,3.04,5.75,5.43,9.57,7.15c3.81,1.73,9.06,3.67,15.74,5.81c8.11,2.62,14.63,5.13,19.58,7.51
			c4.95,2.39,9.15,5.99,12.61,10.82c3.46,4.83,5.19,11.24,5.19,19.23C827.23,167.3,825.8,172.84,822.94,177.97z"/>
	</g>
</g>
</svg>
